<svg width="20" height="20" viewBox="0 0 20 20" fill="none" xmlns="http://www.w3.org/2000/svg">
<path d="M19.609 11.5616L19.8382 9.1263C20.0182 7.2137 20.1082 6.25739 19.781 5.86207C19.604 5.64823 19.3633 5.5172 19.106 5.4946C18.6303 5.45282 18.0329 6.1329 16.8381 7.49307C16.2202 8.1965 15.9113 8.5482 15.5666 8.6027C15.3757 8.6328 15.1811 8.6018 15.0047 8.5131C14.6865 8.3529 14.4743 7.91812 14.0499 7.04851L11.8131 2.46485C11.0112 0.82162 10.6102 0 10 0C9.3898 0 8.9888 0.82162 8.1869 2.46486L5.95007 7.04852C5.5257 7.91812 5.31351 8.3529 4.99526 8.5131C4.81892 8.6018 4.62434 8.6328 4.43337 8.6027C4.08872 8.5482 3.77977 8.1965 3.16187 7.49307C1.96708 6.1329 1.36968 5.45282 0.893988 5.4946C0.636658 5.5172 0.395978 5.64823 0.218988 5.86207C-0.108202 6.25739 -0.0182024 7.2137 0.161808 9.1263L0.390998 11.5616C0.768648 15.5742 0.957478 17.5805 2.14009 18.7902C3.32271 20 5.09517 20 8.6401 20H11.3599C14.9048 20 16.6773 20 17.8599 18.7902C19.0425 17.5805 19.2313 15.5742 19.609 11.5616Z" fill="white"/>
</svg>
